#!OML:ASF \\sashay\E\Suitcase\Project 1\Capture day 1\Session 1\Male1.ASF
:FULLY-SPECIFIED
:DEGREES
161
root 0.793913 17.5318 -32.9119 3.10273 5.13387 -2.90485
lowerback 2.1106 -0.882439 -2.07554
upperback -1.47273 -1.15668 3.66165
thorax -2.5851 -0.505177 5.00378
lowerneck -16.732 -2.32022 -2.81258
upperneck 16.8119 -3.22376 3.75185
head 8.07379 -1.33111 1.33233
rclavicle 5.40446e-015 3.26007e-014
rhumerus -33.4145 -9.96033 -74.9402
rradius 28.9671
rwrist -10.4089
rhand -13.34 17.2085
rfingers 7.12502
rthumb 12.7654 -12.3813
lclavicle 5.40446e-015 3.26007e-014
lhumerus -32.9085 6.68443 88.4837
lradius 26.6223
lwrist -7.97157
lhand -4.43961 41.1379
lfingers 7.12502
lthumb 21.3318 69.9838
rfemur -7.94654 -2.44284 22.5598
rtibia 24.7856
rfoot -19.5867 -10.8155
rtoes 10.5116
lfemur -9.96483 -5.68948 -16.2928
ltibia 26.6681
lfoot -19.7849 4.47211
ltoes -4.45162
162
root 0.79661 17.5352 -32.9139 3.06373 4.99485 -2.85292
lowerback 2.14229 -0.918932 -2.09333
upperback -1.46003 -1.20614 3.67801
thorax -2.58416 -0.529744 5.03352
lowerneck -16.4086 -2.46101 -3.1724
upperneck 17.1837 -3.48579 4.42584
head 8.17005 -1.41159 1.58888
rclavicle -1.30452e-015 2.90226e-014
rhumerus -33.3551 -10.1279 -74.7032
rradius 28.8356
rwrist -10.1985
rhand -13.632 17.596
rfingers 7.12502
rthumb 12.4839 -12.0111
lclavicle -1.30452e-015 2.90226e-014
lhumerus -32.826 6.93002 88.4208
lradius 26.3686
lwrist -7.99608
lhand -4.05992 41.1923
lfingers 7.12502
lthumb 21.6964 69.9965
rfemur -7.91784 -2.39693 22.4596
rtibia 24.8492
rfoot -19.6572 -10.5744
rtoes 11.1303
lfemur -9.85567 -5.88505 -16.3875
ltibia 26.654
lfoot -19.64 4.76837
ltoes -3.74178
163
root 0.794531 17.5287 -32.9126 3.03348 4.6387 -3.04279
lowerback 2.05717 -0.84463 -1.95197
upperback -1.37618 -1.10173 3.7557
thorax -2.46133 -0.48309 5.02685
lowerneck -16.6291 -2.86539 -3.01763
upperneck 18.0119 -4.0921 4.32793
head 8.50804 -1.6869 1.45672
rclavicle 3.21783e-015 -2.78299e-014
rhumerus -33.1264 -10.2531 -74.4954
rradius 28.7199
rwrist -9.88009
rhand -13.8083 16.5971
rfingers 7.12502
rthumb 12.3139 -13.0203
lclavicle 3.21783e-015 -2.78299e-014
lhumerus -32.6275 6.77014 88.5356
lradius 26.1627
lwrist -7.83736
lhand -3.99522 41.2617
lfingers 7.12502
lthumb 21.7585 70.0587
rfemur -8.02998 -2.1491 22.6912
rtibia 24.9221
rfoot -19.5868 -10.6594
rtoes 11.0364
lfemur -9.7992 -5.73038 -16.1805
ltibia 26.6528
lfoot -19.8597 4.95476
ltoes -4.13441
164
root 0.800551 17.529 -32.9194 2.99989 4.71939 -2.81006
lowerback 2.03762 -0.889014 -2.0753
upperback -1.574 -1.16429 3.62655
thorax -2.64849 -0.50645 4.96733
lowerneck -15.3332 -2.92638 -3.02192
upperneck 18.1119 -4.32895 4.8883
head 8.33287 -1.7594 1.63029
rclavicle 2.36057e-015 1.15295e-014
rhumerus -33.6566 -10.7393 -74.0847
rradius 28.6467
rwrist -9.41717
rhand -14.0692 16.8353
rfingers 7.12502
rthumb 12.0624 -12.797
lclavicle 2.36057e-015 1.15295e-014
lhumerus -33.1012 6.71423 88.4021
lradius 25.9402
lwrist -8.12244
lhand -3.92672 41.1002
lfingers 7.12502
lthumb 21.8243 69.8896
rfemur -8.02265 -2.40114 22.3866
rtibia 25.0449
rfoot -19.4201 -10.4543
rtoes 11.5021
lfemur -9.73049 -5.62413 -16.4634
ltibia 26.5847
lfoot -19.673 4.78647
ltoes -3.80382
165
root 0.803505 17.5278 -32.9238 3.04134 4.6122 -2.6246
lowerback 1.96937 -0.863417 -2.19931
upperback -1.52006 -1.13659 3.5531
thorax -2.55621 -0.493803 4.9574
lowerneck -15.6101 -3.3002 -3.03664
upperneck 19.2938 -4.95391 5.14223
head 8.81869 -2.00833 1.64229
rclavicle 1.32813e-014 -1.82882e-014
rhumerus -33.5387 -11.3079 -73.7394
rradius 28.4833
rwrist -9.09663
rhand -13.975 16.9336
rfingers 7.12502
rthumb 12.1532 -12.6934
lclavicle 1.32813e-014 -1.82882e-014
lhumerus -33.146 6.33683 88.4944
lradius 26.1114
lwrist -7.99972
lhand -3.9781 41.6018
lfingers 7.12502
lthumb 21.775 70.3969
rfemur -8.08286 -2.3194 22.1683
rtibia 25.0923
rfoot -19.7913 -10.3722
rtoes 11.5373
lfemur -9.77013 -5.58037 -16.68
ltibia 26.6076
lfoot -19.8737 4.84617
ltoes -4.22085
